<svg viewBox="-281.99999999999994 -280 563.9999999999999 380" xmlns="http://www.w3.org/2000/svg" xmlns:xlink="http://www.w3.org/1999/xlink" version="1.1" class="jsx-2263963463 artboard-inner" style="width: 284.968px; height: 192px; max-height: 100%;">
    <g transform="translate(-289.1428571428571 100) scale(1.984126984126984)" fill="#232323">
        <g id="line1">
            <path d="M37.368-30.456L37.368-40.680C37.368-46.008 32.976-50.400 27.648-50.400L13.320-50.400C7.992-50.400 3.600-46.008 3.600-40.680L3.600-9.720C3.600-4.392 7.992 0 13.320 0L27.648 0C32.976 0 37.368-4.392 37.368-9.720L37.368-19.944L25.704-19.944L25.704-12.384C25.704-11.376 24.840-10.512 23.760-10.512L17.208-10.512C16.128-10.512 15.264-11.376 15.264-12.384L15.264-38.016C15.264-39.024 16.128-39.888 17.208-39.888L23.760-39.888C24.840-39.888 25.704-39.024 25.704-38.016L25.704-30.456Z"></path>
            <path d="M79.380-26.352L79.380-40.680C79.380-46.008 74.988-50.400 69.660-50.400L43.020-50.400L45.612-45.144L45.612 0L57.276 0L57.276-14.688L63.468-14.688L67.716 0L79.380 0L74.484-16.848C77.436-19.008 79.380-22.464 79.380-26.352ZM57.276-39.888L65.772-39.888C66.852-39.888 67.716-39.024 67.716-37.944L67.716-27.144C67.716-26.064 66.852-25.200 65.772-25.200L57.276-25.200Z"></path>
            <path d="M109.008-50.400L94.752-50.400C89.352-50.400 85.032-46.008 85.032-40.680L85.032-9.720C85.032-4.392 89.352 0 94.752 0L109.008 0C114.408 0 118.800-4.392 118.800-9.720L118.800-40.680C118.800-46.008 114.408-50.400 109.008-50.400ZM107.136-12.384C107.136-11.376 106.272-10.512 105.192-10.512L98.568-10.512C97.488-10.512 96.624-11.376 96.624-12.384L96.624-38.016C96.624-39.024 97.488-39.888 98.568-39.888L105.192-39.888C106.272-39.888 107.136-39.024 107.136-38.016Z"></path>
            <path d="M150.084-50.400L150.084-25.200L137.772-50.400L124.452-50.400L127.116-45.144L127.116 0L138.708 0L138.708-25.200L151.164 0L161.748 0L161.748-50.400Z"></path>
            <path d="M194.040-50.400L167.400-50.400L170.064-45.144L170.064 0L181.656 0L181.656-14.688L192.168-14.688C198.576-14.688 203.760-19.944 203.760-26.352L203.760-40.680C203.760-46.008 199.440-50.400 194.040-50.400ZM192.168-27.144C192.168-26.064 191.304-25.200 190.224-25.200L181.656-25.200L181.656-39.888L190.224-39.888C191.304-39.888 192.168-39.024 192.168-37.944Z"></path>
            <path d="M234.180-50.400L234.180-10.512L225.684-10.512C224.604-10.512 223.740-11.376 223.740-12.384L223.740-50.400L209.412-50.400L212.076-45.144L212.076-9.720C212.076-4.392 216.396 0 221.796 0L245.844 0L245.844-50.400Z"></path>
            <path d="M287.856-40.680C287.856-46.008 283.536-50.400 278.136-50.400L251.496-50.400L254.088-45.144L254.088 0L278.136 0C283.536 0 287.856-4.392 287.856-9.720L287.856-21.456L284.112-25.200L287.856-28.944ZM276.264-32.472C276.264-31.392 275.400-30.528 274.320-30.528L265.752-30.528L265.752-39.888L274.320-39.888C275.400-39.888 276.264-39.024 276.264-38.016ZM276.264-12.528C276.264-11.448 275.400-10.584 274.320-10.584L265.752-10.584L265.752-19.872L274.824-19.872C275.616-19.656 276.264-18.936 276.264-18.072Z"></path>
        </g>
    </g>
    <g transform="translate(-140.21018638592534 -293.8553687852071) scale(2.79342110456583)" id="logomark">
        <g fill="#232323">
            <path d="M86.296 33.835L57.535 5.073l-.05 29.508 13.87 13.875-9.232 9.037h33.055V25.14z"></path>
            <path d="M31.03 48.203L7.659 71.576l22.879 22.88.13-12.434 44.256.004 19.729-20.904-63.76.004z"></path>
            <path d="M53.698 38.014V4.96H21.344l8.695 8.886-24.827 24.83-.004 29.554L44.66 28.78z"></path>
        </g>
    </g>
</svg>
